<svg id="Capa_1" data-name="Capa 1" xmlns="http://www.w3.org/2000/svg" viewBox="0 0 932.3 112.5"><defs><style>.cls-1{isolation:isolate;}.cls-2{fill:#fff;}</style></defs><g class="cls-1"><path class="cls-2" d="M10,49.16H30v9.16A34,34,0,0,1,41.35,49.9,33.25,33.25,0,0,1,55,47.11a25.42,25.42,0,0,1,13.49,3.66,26.47,26.47,0,0,1,9.67,10.7,32.45,32.45,0,0,1,11.69-10.7A31.93,31.93,0,0,1,105,47.11a28,28,0,0,1,14.95,4,22.83,22.83,0,0,1,9.27,10.32q2.82,6.38,2.83,20.73v46.73H111.91V88.42q0-13.55-3.37-18.35t-10.1-4.79a15.28,15.28,0,0,0-9.19,2.93,17.33,17.33,0,0,0-6,8.09q-2,5.16-2,16.59v36H61.08V90.25q0-10.69-1.57-15.49a14,14,0,0,0-4.74-7.14,12.46,12.46,0,0,0-7.64-2.34,15,15,0,0,0-9.06,3A17.71,17.71,0,0,0,32,76.56Q30,81.9,30,93.4v35.45H10Z" transform="translate(-9.96 -18.4)"/><path class="cls-2" d="M209.91,49.16h20v79.69h-20v-8.42a39.22,39.22,0,0,1-11.74,8,33,33,0,0,1-12.77,2.45q-15.43,0-26.7-12T147.44,89.15q0-18.45,10.9-30.25t26.48-11.79a33.79,33.79,0,0,1,13.46,2.71A36.87,36.87,0,0,1,209.91,58Zm-21,16.41a20.2,20.2,0,0,0-15.4,6.55q-6.13,6.55-6.13,16.81t6.24,17A20.2,20.2,0,0,0,189,112.59,20.62,20.62,0,0,0,204.59,106q6.19-6.56,6.2-17.18,0-10.39-6.2-16.85A20.89,20.89,0,0,0,188.89,65.57Z" transform="translate(-9.96 -18.4)"/><path class="cls-2" d="M252.54,19.79h20V49.16H284.4V66.37H272.53v62.48h-20V66.37H242.29V49.16h10.25Z" transform="translate(-9.96 -18.4)"/><path class="cls-2" d="M373.1,65.28l-16.65,9.15a28.23,28.23,0,0,0-9.28-6.81,27.81,27.81,0,0,0-10.74-1.9q-11.22,0-18.15,6.69t-6.93,17.14q0,10.17,6.68,16.61t17.52,6.43q13.43,0,20.9-9.16l15.77,10.8Q359.4,130.9,336,130.9q-21,0-32.93-12.45a41.42,41.42,0,0,1,10-65.77,48.2,48.2,0,0,1,23.18-5.57,47,47,0,0,1,21.31,4.73A40.43,40.43,0,0,1,373.1,65.28Z" transform="translate(-9.96 -18.4)"/><path class="cls-2" d="M391.19,18.4H411V57.22a45.22,45.22,0,0,1,11.79-7.58,30.3,30.3,0,0,1,12-2.53,27.07,27.07,0,0,1,20,8.2q7,7.11,7,20.88v52.66h-19.7V93.91q0-13.83-1.32-18.75a13.09,13.09,0,0,0-4.5-7.32,12.68,12.68,0,0,0-7.88-2.42,14.85,14.85,0,0,0-10.43,4,21.4,21.4,0,0,0-6,11Q411,84,411,96.84v32H391.19Z" transform="translate(-9.96 -18.4)"/><path class="cls-2" d="M481,49.16h20v9.16a34.09,34.09,0,0,1,11.39-8.42A33.25,33.25,0,0,1,526,47.11a25.42,25.42,0,0,1,13.49,3.66,26.47,26.47,0,0,1,9.67,10.7,32.45,32.45,0,0,1,11.69-10.7A31.93,31.93,0,0,1,576,47.11a28,28,0,0,1,15,4,22.83,22.83,0,0,1,9.27,10.32q2.84,6.38,2.83,20.73v46.73H582.93V88.42q0-13.55-3.36-18.35t-10.11-4.79a15.28,15.28,0,0,0-9.19,2.93,17.33,17.33,0,0,0-6,8.09q-2,5.16-2,16.59v36H532.1V90.25q0-10.69-1.57-15.49a14,14,0,0,0-4.74-7.14,12.45,12.45,0,0,0-7.63-2.34,15,15,0,0,0-9.07,3A17.63,17.63,0,0,0,503,76.56q-2,5.34-2,16.84v35.45H481Z" transform="translate(-9.96 -18.4)"/><path class="cls-2" d="M680.93,49.16h20v79.69h-20v-8.42a39.22,39.22,0,0,1-11.74,8,33,33,0,0,1-12.77,2.45q-15.43,0-26.7-12T618.46,89.15q0-18.45,10.9-30.25t26.48-11.79a33.75,33.75,0,0,1,13.46,2.71A36.87,36.87,0,0,1,680.93,58Zm-21,16.41a20.2,20.2,0,0,0-15.4,6.55q-6.13,6.55-6.13,16.81t6.24,17A20.2,20.2,0,0,0,660,112.59,20.61,20.61,0,0,0,675.61,106q6.2-6.56,6.2-17.18,0-10.39-6.2-16.85A20.89,20.89,0,0,0,659.91,65.57Z" transform="translate(-9.96 -18.4)"/><path class="cls-2" d="M721.29,18.4h20V82l29.45-32.86h25.11L761.51,87.35l38.43,41.5H775.12L741.28,92.12v36.73h-20Z" transform="translate(-9.96 -18.4)"/><path class="cls-2" d="M888,94.79H823.75a21.36,21.36,0,0,0,7.44,13.51q6,5,15.42,5a26.66,26.66,0,0,0,19.26-7.83l16.84,7.91a39.83,39.83,0,0,1-15.08,13.22q-8.79,4.27-20.88,4.28-18.75,0-30.54-11.83T804.42,89.45q0-18.24,11.75-30.29t29.48-12q18.83,0,30.62,12T888.06,91ZM868,79.05a20,20,0,0,0-7.81-10.84A22.62,22.62,0,0,0,846.64,64,23.92,23.92,0,0,0,832,68.72q-4,2.93-7.34,10.33Z" transform="translate(-9.96 -18.4)"/><path class="cls-2" d="M899.49,49.16h17.14v10a21.37,21.37,0,0,1,7.39-9,17.88,17.88,0,0,1,10.11-3.08,18.79,18.79,0,0,1,8.13,2L936,66.37a13.8,13.8,0,0,0-5.79-1.75q-4.62,0-7.8,5.71t-3.19,22.41l.08,3.88v32.23H899.49Z" transform="translate(-9.96 -18.4)"/></g></svg>